<svg width="68" height="68" viewBox="0 0 68 68" fill="none" xmlns="http://www.w3.org/2000/svg">
<path d="M65.875 45.6875H2.125C1.56141 45.6875 1.02091 45.4636 0.622398 45.0651C0.223883 44.6666 0 44.1261 0 43.5625V8.76562C0.0017579 7.07541 0.673972 5.45492 1.86914 4.25976C3.0643 3.0646 4.68478 2.39238 6.375 2.39062H61.625C63.3152 2.39238 64.9357 3.0646 66.1309 4.25976C67.326 5.45492 67.9982 7.07541 68 8.76562V43.5625C68 44.1261 67.7761 44.6666 67.3776 45.0651C66.9791 45.4636 66.4386 45.6875 65.875 45.6875ZM4.25 41.4375H63.75V8.76562C63.75 8.20204 63.5261 7.66154 63.1276 7.26302C62.7291 6.86451 62.1886 6.64062 61.625 6.64062H6.375C5.81141 6.64062 5.27091 6.86451 4.8724 7.26302C4.47388 7.66154 4.25 8.20204 4.25 8.76562V41.4375Z" fill="#F7AB59"/>
<path d="M61.625 54.4531H6.375C4.68478 54.4514 3.0643 53.7792 1.86914 52.584C0.673972 51.3888 0.0017579 49.7683 0 48.0781L0 43.5625C0 42.9989 0.223883 42.4584 0.622398 42.0599C1.02091 41.6614 1.56141 41.4375 2.125 41.4375H65.875C66.4386 41.4375 66.9791 41.6614 67.3776 42.0599C67.7761 42.4584 68 42.9989 68 43.5625V48.0781C67.9982 49.7683 67.326 51.3888 66.1309 52.584C64.9357 53.7792 63.3152 54.4514 61.625 54.4531ZM4.25 45.6875V48.0781C4.25 48.6417 4.47388 49.1822 4.8724 49.5807C5.27091 49.9792 5.81141 50.2031 6.375 50.2031H61.625C62.1886 50.2031 62.7291 49.9792 63.1276 49.5807C63.5261 49.1822 63.75 48.6417 63.75 48.0781V45.6875H4.25Z" fill="#F7AB59"/>
<path d="M48.875 48.0781C48.3114 48.0781 47.7709 47.8542 47.3724 47.4557C46.9739 47.0572 46.75 46.5167 46.75 45.9531V43.5625C46.75 42.9989 46.9739 42.4584 47.3724 42.0599C47.7709 41.6614 48.3114 41.4375 48.875 41.4375C49.4386 41.4375 49.9791 41.6614 50.3776 42.0599C50.7761 42.4584 51 42.9989 51 43.5625V45.9531C51 46.5167 50.7761 47.0572 50.3776 47.4557C49.9791 47.8542 49.4386 48.0781 48.875 48.0781Z" fill="#F7AB59"/>
<path d="M54.7188 48.0781C54.1552 48.0781 53.6147 47.8542 53.2161 47.4557C52.8176 47.0572 52.5938 46.5167 52.5938 45.9531V43.5625C52.5938 42.9989 52.8176 42.4584 53.2161 42.0599C53.6147 41.6614 54.1552 41.4375 54.7188 41.4375C55.2823 41.4375 55.8228 41.6614 56.2214 42.0599C56.6199 42.4584 56.8438 42.9989 56.8438 43.5625V45.9531C56.8438 46.5167 56.6199 47.0572 56.2214 47.4557C55.8228 47.8542 55.2823 48.0781 54.7188 48.0781Z" fill="#F7AB59"/>
<path d="M43.8282 65.6094H24.1719C23.851 65.6093 23.5343 65.5365 23.2455 65.3965C22.9567 65.2566 22.7034 65.053 22.5045 64.8011C22.3057 64.5492 22.1665 64.2555 22.0973 63.9422C22.0282 63.6288 22.0309 63.3038 22.1053 62.9916L24.7616 51.8354C24.8724 51.3706 25.1366 50.9567 25.5116 50.6606C25.8865 50.3644 26.3503 50.2032 26.8282 50.2031H41.1719C41.6497 50.2032 42.1136 50.3644 42.4885 50.6606C42.8635 50.9567 43.1277 51.3706 43.2385 51.8354L45.8947 62.9916C45.9691 63.3038 45.9719 63.6288 45.9027 63.9422C45.8336 64.2555 45.6944 64.5492 45.4955 64.8011C45.2967 65.053 45.0434 65.2566 44.7546 65.3965C44.4658 65.5365 44.1491 65.6093 43.8282 65.6094ZM26.8627 61.3594H41.1374L39.4932 54.4531H28.5069L26.8627 61.3594Z" fill="#F7AB59"/>
<path d="M47.0156 65.6094H20.9844C20.4208 65.6094 19.8803 65.3855 19.4818 64.987C19.0833 64.5885 18.8594 64.048 18.8594 63.4844C18.8594 62.9208 19.0833 62.3803 19.4818 61.9818C19.8803 61.5833 20.4208 61.3594 20.9844 61.3594H47.0156C47.5792 61.3594 48.1197 61.5833 48.5182 61.9818C48.9167 62.3803 49.1406 62.9208 49.1406 63.4844C49.1406 64.048 48.9167 64.5885 48.5182 64.987C48.1197 65.3855 47.5792 65.6094 47.0156 65.6094Z" fill="#F7AB59"/>
<path d="M35.1953 17.9151C34.7523 17.9152 34.3203 17.7769 33.9598 17.5195C33.5993 17.2621 33.3282 16.8984 33.1845 16.4794C32.9906 15.912 32.7019 15.3816 32.3305 14.9109C32.1501 14.6926 32.015 14.4405 31.9334 14.1693C31.8517 13.8981 31.8251 13.6134 31.8551 13.3318C31.8851 13.0501 31.9711 12.7774 32.108 12.5295C32.2449 12.2815 32.4299 12.0635 32.6523 11.8881C32.8747 11.7128 33.1299 11.5836 33.4029 11.5083C33.6759 11.4329 33.9612 11.4129 34.242 11.4494C34.5228 11.4859 34.7936 11.5782 35.0382 11.7208C35.2829 11.8634 35.4966 12.0535 35.6668 12.2798C36.3358 13.1263 36.8563 14.0801 37.2061 15.1008C37.3158 15.4208 37.3476 15.7624 37.2987 16.0972C37.2498 16.4319 37.1217 16.7502 36.925 17.0254C36.7283 17.3007 36.4688 17.525 36.1679 17.6798C35.8671 17.8345 35.5336 17.9152 35.1953 17.9151Z" fill="#F7AB59"/>
<path d="M39.1797 39.4453C38.2486 39.447 37.344 39.135 36.6119 38.5596C35.8799 37.9842 35.3631 37.1789 35.1448 36.2737L34 31.5589L32.8552 36.2737C32.6411 37.1475 32.149 37.9281 31.4529 38.4981C30.7568 39.068 29.8944 39.3964 28.9955 39.4339C28.0967 39.4713 27.21 39.2158 26.4689 38.7057C25.7278 38.1957 25.1724 37.4587 24.8864 36.6057L24.4986 35.441C23.9395 33.766 23.6285 32.0183 23.5755 30.2533C23.5467 29.268 23.4132 28.2885 23.1771 27.3314C20.4412 25.2702 18.5938 21.6404 18.5938 18.1953C18.5935 16.408 19.0942 14.6564 20.039 13.1392C20.9838 11.622 22.3349 10.4 23.9391 9.61175C25.5432 8.82352 27.3361 8.50063 29.1144 8.67972C30.8927 8.85881 32.5853 9.5327 34 10.625C35.4147 9.5327 37.1073 8.85881 38.8856 8.67972C40.6639 8.50063 42.4568 8.82352 44.0609 9.61175C45.6651 10.4 47.0162 11.622 47.961 13.1392C48.9058 14.6564 49.4065 16.408 49.4062 18.1953C49.4062 21.6404 47.5588 25.2702 44.8309 27.3314C44.5948 28.2885 44.4612 29.268 44.4324 30.2533C44.3448 33.1314 43.6581 34.9934 43.1216 36.6057C42.8467 37.4335 42.3177 38.1535 41.61 38.6633C40.9023 39.1731 40.0519 39.4467 39.1797 39.4453ZM28.1562 12.8828C26.7473 12.8828 25.396 13.4425 24.3997 14.4388C23.4035 15.435 22.8438 16.7863 22.8438 18.1953C22.8438 20.469 24.2569 23.0562 26.1295 24.2143C26.5768 24.4908 26.9057 24.9233 27.0526 25.4282C27.5121 26.9535 27.7697 28.5323 27.8189 30.1245C27.8827 32.2495 28.3595 33.6002 28.8057 34.9389L30.2932 28.8123C30.4949 27.9812 30.97 27.2421 31.6422 26.7134C32.3144 26.1848 33.1448 25.8974 34 25.8974C34.8552 25.8974 35.6856 26.1848 36.3578 26.7134C37.03 27.2421 37.5051 27.9812 37.7068 28.8123L39.1943 34.9389C39.6724 33.5032 40.124 32.2083 40.1811 30.1245C40.23 28.5323 40.4876 26.9534 40.9474 25.4282C41.0943 24.9233 41.4232 24.4908 41.8705 24.2143C43.7431 23.0562 45.1562 20.469 45.1562 18.1953C45.1562 17.0909 44.812 16.014 44.1715 15.1143C43.5309 14.2147 42.626 13.537 41.5824 13.1756C40.5389 12.8141 39.4086 12.7869 38.3489 13.0977C37.2891 13.4084 36.3526 14.0417 35.6695 14.9095C35.4706 15.1618 35.2171 15.3657 34.928 15.5059C34.639 15.6461 34.3219 15.7189 34.0007 15.7189C33.6794 15.7189 33.3623 15.6461 33.0733 15.5059C32.7843 15.3657 32.5308 15.1618 32.3319 14.9095C31.8359 14.2762 31.202 13.7645 30.4784 13.4133C29.7548 13.0621 28.9606 12.8806 28.1562 12.8828Z" fill="#F7AB59"/>
<g opacity="0.2">
<path opacity="0.2" d="M47.2813 18.1953C47.2813 21.1796 45.5242 24.4534 42.9874 26.0219C42.5774 27.3745 42.3483 28.7755 42.3061 30.1882C42.2278 32.7303 41.6235 34.3732 41.1028 35.9337C40.9639 36.3512 40.693 36.7122 40.3308 36.9621C39.9687 37.212 39.535 37.3373 39.0954 37.319C38.6558 37.3007 38.2341 37.1398 37.894 36.8607C37.5538 36.5815 37.3138 36.1993 37.2101 35.7717C35.4968 28.718 35.6309 29.2121 35.534 29.0049C38.0047 26.7517 39.7111 23.7839 40.4153 20.515C41.1195 17.2462 40.7864 13.839 39.4626 10.7684C43.5877 10.5081 47.2813 13.8603 47.2813 18.1953Z" fill="#F7AB59"/>
</g>
<path d="M59.2344 32.8047H49.4062C48.8427 32.8047 48.3022 32.5808 47.9036 32.1823C47.5051 31.7838 47.2812 31.2433 47.2812 30.6797C47.2812 30.1161 47.5051 29.5756 47.9036 29.1771C48.3022 28.7786 48.8427 28.5547 49.4062 28.5547H59.2344C59.798 28.5547 60.3385 28.7786 60.737 29.1771C61.1355 29.5756 61.3594 30.1161 61.3594 30.6797C61.3594 31.2433 61.1355 31.7838 60.737 32.1823C60.3385 32.5808 59.798 32.8047 59.2344 32.8047Z" fill="#F7AB59"/>
<path d="M55.25 39.4453H49.4062C48.8427 39.4453 48.3022 39.2214 47.9036 38.8229C47.5051 38.4244 47.2812 37.8839 47.2812 37.3203C47.2812 36.7567 47.5051 36.2162 47.9036 35.8177C48.3022 35.4192 48.8427 35.1953 49.4062 35.1953H55.25C55.8136 35.1953 56.3541 35.4192 56.7526 35.8177C57.1511 36.2162 57.375 36.7567 57.375 37.3203C57.375 37.8839 57.1511 38.4244 56.7526 38.8229C56.3541 39.2214 55.8136 39.4453 55.25 39.4453Z" fill="#F7AB59"/>
<path d="M18.5938 32.8047H8.76562C8.20204 32.8047 7.66154 32.5808 7.26302 32.1823C6.86451 31.7838 6.64063 31.2433 6.64062 30.6797C6.64062 30.1161 6.86451 29.5756 7.26302 29.1771C7.66154 28.7786 8.20204 28.5547 8.76562 28.5547H18.5938C19.1573 28.5547 19.6978 28.7786 20.0964 29.1771C20.4949 29.5756 20.7188 30.1161 20.7188 30.6797C20.7188 31.2433 20.4949 31.7838 20.0964 32.1823C19.6978 32.5808 19.1573 32.8047 18.5938 32.8047Z" fill="#F7AB59"/>
<path d="M14.6094 39.4453H8.76562C8.20204 39.4453 7.66154 39.2214 7.26302 38.8229C6.86451 38.4244 6.64063 37.8839 6.64062 37.3203C6.64062 36.7567 6.86451 36.2162 7.26302 35.8177C7.66154 35.4192 8.20204 35.1953 8.76562 35.1953H14.6094C15.173 35.1953 15.7135 35.4192 16.112 35.8177C16.5105 36.2162 16.7344 36.7567 16.7344 37.3203C16.7344 37.8839 16.5105 38.4244 16.112 38.8229C15.7135 39.2214 15.173 39.4453 14.6094 39.4453Z" fill="#F7AB59"/>
<g opacity="0.2">
<path d="M65.875 8.76562V43.5625H42.5C56.1797 35.1621 62.7805 19.7665 59.9117 4.51562H61.625C62.7522 4.51563 63.8332 4.96339 64.6302 5.76042C65.4272 6.55745 65.875 7.63845 65.875 8.76562Z" fill="#F7AB59"/>
</g>
<g opacity="0.2">
<path d="M65.875 43.5625V48.0781C65.875 49.2053 65.4272 50.2863 64.6302 51.0833C63.8332 51.8804 62.7522 52.3281 61.625 52.3281H39.1385C41.2635 50.0451 42.6913 46.831 43.0645 43.5625H65.875Z" fill="#F7AB59"/>
</g>
<g opacity="0.2">
<path opacity="0.2" d="M43.8281 63.4844H30.6638C32.8883 62.6576 34.772 61.1098 36.0145 59.0879C37.257 57.066 37.7869 54.6862 37.5195 52.3281H41.1719L43.8281 63.4844Z" fill="#F7AB59"/>
</g>
</svg>
