<svg width="68" height="68" viewBox="0 0 68 68" fill="none" xmlns="http://www.w3.org/2000/svg">
<path d="M35.1953 27.8761C34.7523 27.8762 34.3204 27.7379 33.9598 27.4805C33.5993 27.2231 33.3282 26.8594 33.1845 26.4404C32.9907 25.8727 32.7014 25.3423 32.3292 24.8719C32.1565 24.6527 32.0286 24.4015 31.9529 24.1329C31.8772 23.8642 31.8551 23.5833 31.888 23.3061C31.9209 23.0289 32.008 22.7609 32.1444 22.5174C32.2809 22.2739 32.4639 22.0597 32.6832 21.8869C32.9024 21.7142 33.1535 21.5863 33.4222 21.5106C33.6908 21.4349 33.9718 21.4128 34.249 21.4457C34.8087 21.5121 35.3192 21.7981 35.6681 22.2409C36.336 23.0879 36.856 24.0416 37.2061 25.0618C37.3158 25.3818 37.3476 25.7234 37.2987 26.0582C37.2498 26.3929 37.1217 26.7112 36.925 26.9865C36.7283 27.2617 36.4688 27.4861 36.1679 27.6408C35.8671 27.7955 35.5336 27.8762 35.1953 27.8761Z" fill="#F7AB59"/>
<path d="M39.1797 49.4063C38.2486 49.408 37.344 49.096 36.6119 48.5206C35.8799 47.9452 35.3631 47.1399 35.1448 46.2347L34 41.5199L32.8552 46.2347C32.6411 47.1085 32.149 47.8891 31.4529 48.4591C30.7568 49.029 29.8944 49.3574 28.9955 49.3949C28.0967 49.4323 27.21 49.1768 26.4689 48.6667C25.7278 48.1567 25.1724 47.4197 24.8864 46.5667L24.4986 45.402C23.9395 43.727 23.6285 41.9793 23.5755 40.2143C23.5467 39.229 23.4132 38.2495 23.1771 37.2924C20.4412 35.2312 18.5938 31.6014 18.5938 28.1563C18.5935 26.369 19.0942 24.6174 20.039 23.1002C20.9838 21.583 22.3349 20.361 23.9391 19.5727C25.5432 18.7845 27.3361 18.4616 29.1144 18.6407C30.8927 18.8198 32.5853 19.4937 34 20.5859C35.4147 19.4937 37.1073 18.8198 38.8856 18.6407C40.6639 18.4616 42.4568 18.7845 44.0609 19.5727C45.6651 20.361 47.0162 21.583 47.961 23.1002C48.9058 24.6174 49.4065 26.369 49.4062 28.1563C49.4062 31.6014 47.5588 35.2312 44.8309 37.2924C44.5948 38.2495 44.4612 39.229 44.4324 40.2143C44.3448 43.0924 43.6595 44.9544 43.1216 46.5667C42.8467 47.3945 42.3177 48.1145 41.61 48.6243C40.9023 49.1341 40.0519 49.4077 39.1797 49.4063ZM34 35.8594C34.8555 35.8577 35.6866 36.1443 36.3591 36.673C37.0317 37.2017 37.5064 37.9416 37.7068 38.7733L39.1943 44.8999C39.6698 43.4722 40.124 42.1733 40.1811 40.0855C40.2301 38.4933 40.4877 36.9144 40.9474 35.3892C41.0943 34.8843 41.4232 34.4518 41.8705 34.1753C43.7431 33.0172 45.1562 30.43 45.1562 28.1563C45.1562 27.0519 44.812 25.975 44.1715 25.0753C43.5309 24.1757 42.626 23.498 41.5824 23.1366C40.5389 22.7751 39.4086 22.7479 38.3489 23.0587C37.2891 23.3694 36.3526 24.0027 35.6695 24.8705C35.4706 25.1228 35.2171 25.3267 34.928 25.4669C34.639 25.6071 34.3219 25.6799 34.0007 25.6799C33.6794 25.6799 33.3623 25.6071 33.0733 25.4669C32.7843 25.3267 32.5308 25.1228 32.3319 24.8705C31.6489 24.0022 30.7123 23.3684 29.6523 23.0573C28.5923 22.7462 27.4617 22.7733 26.4178 23.1348C25.3739 23.4963 24.4687 24.1742 23.8281 25.0742C23.1875 25.9742 22.8434 27.0516 22.8438 28.1563C22.8438 30.43 24.2569 33.0172 26.1295 34.1753C26.5768 34.4518 26.9057 34.8843 27.0526 35.3892C28.2904 39.6392 27.3594 40.5689 28.5255 44.0579L28.8057 44.8999L30.2932 38.7733C30.4936 37.9416 30.9683 37.2017 31.6409 36.673C32.3134 36.1443 33.1445 35.8577 34 35.8594Z" fill="#F7AB59"/>
<g opacity="0.2">
<path opacity="0.2" d="M47.2813 28.1562C47.2813 31.1405 45.5242 34.4143 42.9874 35.9829C42.5774 37.3355 42.3483 38.7364 42.3061 40.1492C42.2278 42.6912 41.6235 44.3341 41.1028 45.8946C40.9639 46.3122 40.693 46.6731 40.3308 46.923C39.9687 47.1729 39.535 47.2982 39.0954 47.2799C38.6558 47.2616 38.2341 47.1007 37.894 46.8216C37.5538 46.5425 37.3138 46.1602 37.2101 45.7326C35.4968 38.6789 35.6309 39.173 35.534 38.9658C38.0047 36.7126 39.7111 33.7448 40.4153 30.476C41.1195 27.2071 40.7864 23.8 39.4626 20.7293C43.5877 20.469 47.2813 23.8212 47.2813 28.1562Z" fill="#F7AB59"/>
</g>
<path d="M39.4453 68H28.5547C28.0621 68 27.5848 67.8288 27.2045 67.5158C26.8241 67.2028 26.5644 66.7674 26.4695 66.2841L24.9847 58.7137C24.2764 58.4561 23.5831 58.1683 22.9048 57.8505L16.4966 62.1562C16.0876 62.4295 15.5965 62.5523 15.107 62.5039C14.6175 62.4554 14.16 62.2387 13.8125 61.8906L6.10938 54.1875C5.7603 53.8397 5.54294 53.3814 5.49448 52.8911C5.44603 52.4007 5.56949 51.9088 5.84375 51.4994L10.1509 45.0912C9.83388 44.4103 9.54612 43.717 9.28758 43.0113L1.71727 41.5265C1.23433 41.4321 0.799127 41.173 0.485943 40.7934C0.172759 40.4139 0.0010062 39.9374 0 39.4453L0 28.5547C2.31381e-05 28.0621 0.171167 27.5848 0.484166 27.2045C0.797164 26.8241 1.23257 26.5644 1.71594 26.4695L9.28625 24.9847C9.54391 24.2764 9.83167 23.5831 10.1495 22.9048L5.84375 16.4966C5.57054 16.0876 5.44767 15.5965 5.49611 15.107C5.54455 14.6175 5.76129 14.16 6.10938 13.8125L13.8125 6.10938C14.1603 5.7603 14.6186 5.54294 15.1089 5.49448C15.5993 5.44603 16.0913 5.56949 16.5006 5.84375L22.9088 10.1509C23.5897 9.83388 24.283 9.54612 24.9887 9.28758L26.4735 1.71727C26.5679 1.23433 26.827 0.799127 27.2066 0.485943C27.5861 0.172759 28.0626 0.0010062 28.5547 0L39.4453 0C39.9379 2.31381e-05 40.4152 0.171167 40.7955 0.484166C41.1758 0.797164 41.4356 1.23257 41.5305 1.71594L43.0153 9.28625C43.7236 9.54391 44.4169 9.83167 45.0952 10.1495L51.5034 5.84375C51.9124 5.57054 52.4035 5.44767 52.893 5.49611C53.3825 5.54455 53.84 5.76129 54.1875 6.10938L61.8906 13.8125C62.2397 14.1603 62.4571 14.6186 62.5055 15.1089C62.554 15.5993 62.4305 16.0913 62.1562 16.5006L57.8491 22.9088C58.1661 23.5897 58.4539 24.283 58.7124 24.9887L66.2827 26.4735C66.7657 26.5679 67.2009 26.827 67.5141 27.2066C67.8272 27.5861 67.999 28.0626 68 28.5547V39.4453C68 39.9379 67.8288 40.4152 67.5158 40.7955C67.2028 41.1758 66.7674 41.4356 66.2841 41.5305L58.7137 43.0153C58.4561 43.7236 58.1683 44.4169 57.8505 45.0952L62.1562 51.5034C62.4295 51.9124 62.5523 52.4035 62.5039 52.893C62.4554 53.3825 62.2387 53.84 61.8906 54.1875L54.1875 61.8906C53.8397 62.2397 53.3814 62.4571 52.8911 62.5055C52.4007 62.554 51.9088 62.4305 51.4994 62.1562L45.0912 57.8491C44.4103 58.1661 43.717 58.4539 43.0113 58.7124L41.5265 66.2827C41.4321 66.7657 41.173 67.2009 40.7934 67.5141C40.4139 67.8272 39.9374 67.999 39.4453 68ZM30.3038 63.75H37.6962L39.0827 56.683C39.1568 56.3059 39.3318 55.9559 39.5891 55.6703C39.8464 55.3848 40.1763 55.1743 40.5437 55.0614C41.831 54.6618 43.0786 54.1439 44.2704 53.5141C44.61 53.3352 44.9916 53.2516 45.3749 53.2722C45.7582 53.2928 46.1287 53.4168 46.4472 53.631L52.4238 57.6499L57.6512 52.4224L53.6323 46.4459C53.4181 46.1274 53.2941 45.7569 53.2735 45.3736C53.2529 44.9903 53.3365 44.6086 53.5155 44.2691C54.145 43.0772 54.6629 41.8296 55.0627 40.5423C55.1756 40.1749 55.3861 39.845 55.6716 39.5878C55.9572 39.3305 56.3072 39.1555 56.6844 39.0814L63.75 37.6962V30.3038L56.683 28.9173C56.3059 28.8432 55.9559 28.6682 55.6703 28.4109C55.3848 28.1536 55.1743 27.8237 55.0614 27.4563C54.6616 26.1691 54.1436 24.9215 53.5141 23.7296C53.3352 23.39 53.2516 23.0084 53.2722 22.6251C53.2928 22.2418 53.4168 21.8713 53.631 21.5528L57.6499 15.5763L52.4224 10.3501L46.4459 14.369C46.1274 14.5832 45.7569 14.7072 45.3736 14.7278C44.9903 14.7484 44.6086 14.6648 44.2691 14.4859C43.0773 13.8561 41.8297 13.3382 40.5423 12.9386C40.1749 12.8257 39.845 12.6152 39.5878 12.3297C39.3305 12.0441 39.1555 11.6941 39.0814 11.317L37.6962 4.25H30.3038L28.9173 11.317C28.8432 11.6941 28.6682 12.0441 28.4109 12.3297C28.1536 12.6152 27.8237 12.8257 27.4563 12.9386C26.169 13.3382 24.9214 13.8561 23.7296 14.4859C23.39 14.6648 23.0084 14.7484 22.6251 14.7278C22.2418 14.7072 21.8713 14.5832 21.5528 14.369L15.5763 10.3501L10.3501 15.5776L14.369 21.5541C14.5832 21.8726 14.7072 22.2431 14.7278 22.6264C14.7484 23.0097 14.6648 23.3914 14.4859 23.7309C13.8561 24.9227 13.3382 26.1703 12.9386 27.4577C12.8257 27.8251 12.6152 28.155 12.3297 28.4122C12.0441 28.6695 11.6941 28.8445 11.317 28.9186L4.25 30.3038V37.6962L11.317 39.0827C11.6941 39.1568 12.0441 39.3318 12.3297 39.5891C12.6152 39.8464 12.8257 40.1763 12.9386 40.5437C13.3382 41.831 13.8561 43.0786 14.4859 44.2704C14.6648 44.61 14.7484 44.9916 14.7278 45.3749C14.7072 45.7582 14.5832 46.1287 14.369 46.4472L10.3501 52.4238L15.5776 57.6512L21.5541 53.6323C21.8726 53.4181 22.2431 53.2941 22.6264 53.2735C23.0097 53.2529 23.3914 53.3365 23.7309 53.5155C24.9227 54.1452 26.1703 54.6632 27.4577 55.0627C27.8251 55.1756 28.155 55.3861 28.4122 55.6716C28.6695 55.9572 28.8445 56.3072 28.9186 56.6844L30.3038 63.75Z" fill="#F7AB59"/>
<g opacity="0.2">
<path d="M57.0908 41.1719C56.6524 42.5843 56.0847 43.9532 55.3947 45.2612L60.3898 52.6921L52.6867 60.3952L45.2558 55.4001C43.9493 56.0879 42.5822 56.6539 41.1719 57.0908L39.4453 65.875H28.5547L27.1376 58.65C43.3062 55.1093 55.4797 40.8957 55.9021 23.7655C56.3683 24.7578 56.7655 25.7811 57.0908 26.8282L65.875 28.5547V39.4453L57.0908 41.1719Z" fill="#F7AB59"/>
</g>
</svg>
