<svg width="68" height="68" viewBox="0 0 68 68" fill="none" xmlns="http://www.w3.org/2000/svg">
<path d="M35.1953 27.876C34.7523 27.8762 34.3203 27.7379 33.9598 27.4804C33.5993 27.223 33.3282 26.8594 33.1845 26.4403C32.9906 25.8729 32.7019 25.3426 32.3305 24.8718C32.1501 24.6535 32.015 24.4014 31.9334 24.1302C31.8518 23.8591 31.8251 23.5743 31.8551 23.2927C31.8851 23.0111 31.9711 22.7383 32.108 22.4904C32.2449 22.2425 32.4299 22.0244 32.6523 21.8491C32.8747 21.6737 33.1299 21.5446 33.4029 21.4692C33.6759 21.3939 33.9612 21.3739 34.242 21.4104C34.5228 21.4469 34.7936 21.5391 35.0382 21.6817C35.2829 21.8243 35.4966 22.0144 35.6668 22.2408C36.3358 23.0872 36.8563 24.0411 37.2061 25.0617C37.3158 25.3817 37.3476 25.7233 37.2987 26.0581C37.2498 26.3929 37.1217 26.7111 36.925 26.9864C36.7283 27.2617 36.4688 27.486 36.1679 27.6407C35.8671 27.7955 35.5336 27.8761 35.1953 27.876Z" fill="#F7AB59"/>
<path d="M39.1797 49.4063C38.2486 49.408 37.344 49.096 36.6119 48.5206C35.8799 47.9452 35.3631 47.1399 35.1448 46.2347L34 41.5199L32.8552 46.2347C32.6411 47.1085 32.149 47.8891 31.4529 48.4591C30.7568 49.029 29.8944 49.3574 28.9955 49.3949C28.0967 49.4323 27.21 49.1768 26.4689 48.6667C25.7278 48.1567 25.1724 47.4197 24.8864 46.5667L24.4986 45.402C23.9395 43.727 23.6285 41.9793 23.5755 40.2143C23.5467 39.229 23.4132 38.2495 23.1771 37.2924C20.4412 35.2312 18.5938 31.6014 18.5938 28.1563C18.5935 26.369 19.0942 24.6174 20.039 23.1002C20.9838 21.583 22.3349 20.361 23.9391 19.5727C25.5432 18.7845 27.3361 18.4616 29.1144 18.6407C30.8927 18.8198 32.5853 19.4937 34 20.5859C35.4147 19.4937 37.1073 18.8198 38.8856 18.6407C40.6639 18.4616 42.4568 18.7845 44.0609 19.5727C45.6651 20.361 47.0162 21.583 47.961 23.1002C48.9058 24.6174 49.4065 26.369 49.4062 28.1563C49.4062 31.6014 47.5588 35.2312 44.8309 37.2924C44.5948 38.2495 44.4612 39.229 44.4324 40.2143C44.3448 43.0924 43.6581 44.9544 43.1216 46.5667C42.8467 47.3945 42.3177 48.1145 41.61 48.6243C40.9023 49.1341 40.0519 49.4077 39.1797 49.4063ZM28.1562 22.8438C26.7473 22.8438 25.396 23.4035 24.3997 24.3998C23.4035 25.396 22.8438 26.7473 22.8438 28.1563C22.8438 30.43 24.2569 33.0172 26.1295 34.1753C26.5768 34.4518 26.9057 34.8843 27.0526 35.3892C27.5121 36.9145 27.7697 38.4933 27.8189 40.0855C27.8827 42.2105 28.3595 43.5612 28.8057 44.8999L30.2932 38.7733C30.4949 37.9422 30.97 37.203 31.6422 36.6744C32.3144 36.1458 33.1448 35.8584 34 35.8584C34.8552 35.8584 35.6856 36.1458 36.3578 36.6744C37.03 37.203 37.5051 37.9422 37.7068 38.7733L39.1943 44.8999C39.6724 43.4642 40.124 42.1693 40.1811 40.0855C40.23 38.4933 40.4876 36.9144 40.9474 35.3892C41.0943 34.8843 41.4232 34.4518 41.8705 34.1753C43.7431 33.0172 45.1562 30.43 45.1562 28.1563C45.1562 27.0519 44.812 25.975 44.1715 25.0753C43.5309 24.1757 42.626 23.498 41.5824 23.1366C40.5389 22.7751 39.4086 22.7479 38.3489 23.0587C37.2891 23.3694 36.3526 24.0027 35.6695 24.8705C35.4706 25.1228 35.2171 25.3267 34.928 25.4669C34.639 25.6071 34.3219 25.6799 34.0007 25.6799C33.6794 25.6799 33.3623 25.6071 33.0733 25.4669C32.7843 25.3267 32.5308 25.1228 32.3319 24.8705C31.8359 24.2372 31.202 23.7255 30.4784 23.3743C29.7548 23.0231 28.9606 22.8416 28.1562 22.8438Z" fill="#F7AB59"/>
<g opacity="0.2">
<path opacity="0.2" d="M47.2812 28.1562C47.2812 31.1405 45.5241 34.4143 42.9874 35.9829C42.5774 37.3355 42.3483 38.7364 42.3061 40.1492C42.2277 42.6912 41.6234 44.3341 41.1028 45.8946C40.9639 46.3122 40.693 46.6731 40.3308 46.923C39.9687 47.1729 39.535 47.2982 39.0954 47.2799C38.6558 47.2616 38.2341 47.1007 37.8939 46.8216C37.5538 46.5425 37.3138 46.1602 37.2101 45.7326C35.4968 38.6789 35.6309 39.173 35.534 38.9658C38.0047 36.7126 39.7111 33.7448 40.4153 30.476C41.1195 27.2071 40.7864 23.8 39.4626 20.7293C43.5877 20.469 47.2812 23.8212 47.2812 28.1562Z" fill="#F7AB59"/>
</g>
<path d="M34 63.0858C28.2473 63.0858 22.6239 61.38 17.8407 58.184C13.0576 54.988 9.32953 50.4454 7.12809 45.1306C4.92664 39.8158 4.35064 33.9676 5.47293 28.3255C6.59522 22.6834 9.36539 17.5008 13.4331 13.433C17.5009 9.36529 22.6835 6.59512 28.3256 5.47283C33.9677 4.35054 39.8159 4.92654 45.1307 7.12799C50.4455 9.32943 54.9881 13.0575 58.1841 17.8406C61.3801 22.6238 63.0859 28.2472 63.0859 33.9999C63.0878 37.82 62.3368 41.6031 60.8758 45.1329C59.4148 48.6626 57.2724 51.8698 54.5711 54.571C51.8699 57.2723 48.6627 59.4147 45.133 60.8757C41.6032 62.3367 37.8201 63.0877 34 63.0858ZM34 9.16395C20.3057 9.16395 9.16405 20.3056 9.16405 33.9999C9.16405 47.6942 20.3057 58.8358 34 58.8358C47.6943 58.8358 58.8359 47.6942 58.8359 33.9999C58.8359 20.3056 47.6943 9.16395 34 9.16395Z" fill="#F7AB59"/>
<g opacity="0.2">
<path d="M60.9609 34.0001C60.9609 48.8897 48.8896 60.961 34 60.961C30.3283 60.9656 26.6947 60.2178 23.3232 58.7639C19.9516 57.31 16.9137 55.1808 14.3969 52.5075C18.4649 54.834 23.0715 56.0544 27.7578 56.047C42.6474 56.047 54.7187 43.9756 54.7187 29.086C54.7284 22.202 52.0946 15.5769 47.3609 10.5786C51.4931 12.9351 54.9279 16.3433 57.3166 20.457C59.7052 24.5706 60.9626 29.2432 60.9609 34.0001Z" fill="#F7AB59"/>
</g>
<path d="M6.10938 16.7344C5.54579 16.7344 5.00529 16.5105 4.60677 16.112C4.20826 15.7135 3.98438 15.173 3.98438 14.6094V6.10938C3.98438 5.54579 4.20826 5.00529 4.60677 4.60677C5.00529 4.20826 5.54579 3.98438 6.10938 3.98438H14.6094C15.173 3.98438 15.7135 4.20826 16.112 4.60677C16.5105 5.00529 16.7344 5.54579 16.7344 6.10938C16.7344 6.67296 16.5105 7.21346 16.112 7.61198C15.7135 8.01049 15.173 8.23438 14.6094 8.23438H8.23438V14.6094C8.23438 15.173 8.01049 15.7135 7.61198 16.112C7.21346 16.5105 6.67296 16.7344 6.10938 16.7344Z" fill="#F7AB59"/>
<path d="M14.6094 64.0156H6.10938C5.54579 64.0156 5.00529 63.7917 4.60677 63.3932C4.20826 62.9947 3.98438 62.4542 3.98438 61.8906V53.3906C3.98438 52.827 4.20826 52.2865 4.60677 51.888C5.00529 51.4895 5.54579 51.2656 6.10938 51.2656C6.67296 51.2656 7.21346 51.4895 7.61198 51.888C8.01049 52.2865 8.23438 52.827 8.23438 53.3906V59.7656H14.6094C15.173 59.7656 15.7135 59.9895 16.112 60.388C16.5105 60.7865 16.7344 61.327 16.7344 61.8906C16.7344 62.4542 16.5105 62.9947 16.112 63.3932C15.7135 63.7917 15.173 64.0156 14.6094 64.0156Z" fill="#F7AB59"/>
<path d="M61.8906 64.0156H53.3906C52.827 64.0156 52.2865 63.7917 51.888 63.3932C51.4895 62.9947 51.2656 62.4542 51.2656 61.8906C51.2656 61.327 51.4895 60.7865 51.888 60.388C52.2865 59.9895 52.827 59.7656 53.3906 59.7656H59.7656V53.3906C59.7656 52.827 59.9895 52.2865 60.388 51.888C60.7865 51.4895 61.327 51.2656 61.8906 51.2656C62.4542 51.2656 62.9947 51.4895 63.3932 51.888C63.7917 52.2865 64.0156 52.827 64.0156 53.3906V61.8906C64.0156 62.4542 63.7917 62.9947 63.3932 63.3932C62.9947 63.7917 62.4542 64.0156 61.8906 64.0156Z" fill="#F7AB59"/>
<path d="M61.8906 16.7344C61.327 16.7344 60.7865 16.5105 60.388 16.112C59.9895 15.7135 59.7656 15.173 59.7656 14.6094V8.23438H53.3906C52.827 8.23438 52.2865 8.01049 51.888 7.61198C51.4895 7.21346 51.2656 6.67296 51.2656 6.10938C51.2656 5.54579 51.4895 5.00529 51.888 4.60677C52.2865 4.20826 52.827 3.98438 53.3906 3.98438H61.8906C62.4542 3.98438 62.9947 4.20826 63.3932 4.60677C63.7917 5.00529 64.0156 5.54579 64.0156 6.10938V14.6094C64.0156 15.173 63.7917 15.7135 63.3932 16.112C62.9947 16.5105 62.4542 16.7344 61.8906 16.7344Z" fill="#F7AB59"/>
<path d="M34 12.75C33.4364 12.75 32.8959 12.5261 32.4974 12.1276C32.0989 11.7291 31.875 11.1886 31.875 10.625V2.125C31.875 1.56141 32.0989 1.02091 32.4974 0.622398C32.8959 0.223883 33.4364 0 34 0C34.5636 0 35.1041 0.223883 35.5026 0.622398C35.9011 1.02091 36.125 1.56141 36.125 2.125V10.625C36.125 11.1886 35.9011 11.7291 35.5026 12.1276C35.1041 12.5261 34.5636 12.75 34 12.75Z" fill="#F7AB59"/>
<path d="M10.625 36.125H2.125C1.56141 36.125 1.02091 35.9011 0.622398 35.5026C0.223883 35.1041 0 34.5636 0 34C0 33.4364 0.223883 32.8959 0.622398 32.4974C1.02091 32.0989 1.56141 31.875 2.125 31.875H10.625C11.1886 31.875 11.7291 32.0989 12.1276 32.4974C12.5261 32.8959 12.75 33.4364 12.75 34C12.75 34.5636 12.5261 35.1041 12.1276 35.5026C11.7291 35.9011 11.1886 36.125 10.625 36.125Z" fill="#F7AB59"/>
<path d="M34 68C33.4364 68 32.8959 67.7761 32.4974 67.3776C32.0989 66.9791 31.875 66.4386 31.875 65.875V57.375C31.875 56.8114 32.0989 56.2709 32.4974 55.8724C32.8959 55.4739 33.4364 55.25 34 55.25C34.5636 55.25 35.1041 55.4739 35.5026 55.8724C35.9011 56.2709 36.125 56.8114 36.125 57.375V65.875C36.125 66.4386 35.9011 66.9791 35.5026 67.3776C35.1041 67.7761 34.5636 68 34 68Z" fill="#F7AB59"/>
<path d="M65.875 36.125H57.375C56.8114 36.125 56.2709 35.9011 55.8724 35.5026C55.4739 35.1041 55.25 34.5636 55.25 34C55.25 33.4364 55.4739 32.8959 55.8724 32.4974C56.2709 32.0989 56.8114 31.875 57.375 31.875H65.875C66.4386 31.875 66.9791 32.0989 67.3776 32.4974C67.7761 32.8959 68 33.4364 68 34C68 34.5636 67.7761 35.1041 67.3776 35.5026C66.9791 35.9011 66.4386 36.125 65.875 36.125Z" fill="#F7AB59"/>
</svg>
