<svg width="68" height="68" viewBox="0 0 68 68" fill="none" xmlns="http://www.w3.org/2000/svg">
<path d="M35.1953 27.8759C34.7523 27.8761 34.3203 27.7378 33.9598 27.4804C33.5993 27.2229 33.3282 26.8593 33.1845 26.4402C32.9904 25.8723 32.7012 25.3414 32.3292 24.8704C31.9805 24.4276 31.8219 23.8645 31.8884 23.3048C31.9549 22.7451 32.241 22.2348 32.6838 21.8861C32.903 21.7134 33.1541 21.5856 33.4228 21.51C33.6914 21.4344 33.9723 21.4124 34.2494 21.4453C34.809 21.5118 35.3194 21.7979 35.6681 22.2407C36.3359 23.0877 36.8559 24.0414 37.2061 25.0616C37.3158 25.3817 37.3475 25.7233 37.2986 26.058C37.2498 26.3928 37.1217 26.711 36.925 26.9863C36.7283 27.2616 36.4687 27.4859 36.1679 27.6406C35.867 27.7954 35.5336 27.876 35.1953 27.8759Z" fill="#F7AB59"/>
<path d="M39.1797 49.4063C38.2486 49.408 37.344 49.096 36.6119 48.5206C35.8799 47.9452 35.3631 47.1399 35.1448 46.2347L34 41.5199L32.8552 46.2347C32.6411 47.1085 32.149 47.8891 31.4529 48.4591C30.7568 49.029 29.8944 49.3574 28.9955 49.3949C28.0967 49.4323 27.21 49.1768 26.4689 48.6667C25.7278 48.1567 25.1724 47.4197 24.8864 46.5667L24.4986 45.402C23.9395 43.727 23.6285 41.9793 23.5755 40.2143C23.5467 39.229 23.4132 38.2495 23.1771 37.2924C20.4412 35.2312 18.5938 31.6014 18.5938 28.1563C18.5935 26.369 19.0942 24.6174 20.039 23.1002C20.9838 21.583 22.3349 20.361 23.9391 19.5727C25.5432 18.7845 27.3361 18.4616 29.1144 18.6407C30.8927 18.8198 32.5853 19.4937 34 20.5859C35.4147 19.4937 37.1073 18.8198 38.8856 18.6407C40.6639 18.4616 42.4568 18.7845 44.0609 19.5727C45.6651 20.361 47.0162 21.583 47.961 23.1002C48.9058 24.6174 49.4065 26.369 49.4062 28.1563C49.4062 31.6014 47.5588 35.2312 44.8309 37.2924C44.5948 38.2495 44.4612 39.229 44.4324 40.2143C44.3448 43.0924 43.6595 44.9544 43.1216 46.5667C42.8467 47.3945 42.3177 48.1145 41.61 48.6243C40.9023 49.1341 40.0519 49.4077 39.1797 49.4063ZM28.1562 22.8438C26.7473 22.8438 25.396 23.4035 24.3997 24.3998C23.4035 25.396 22.8438 26.7473 22.8438 28.1563C22.8438 30.4287 24.2569 33.0172 26.1309 34.1753C26.5776 34.4521 26.906 34.8845 27.0526 35.3892C27.512 36.9145 27.7696 38.4933 27.8189 40.0855C27.8827 42.2012 28.3581 43.5585 28.8057 44.8999L30.2932 38.7733C30.4949 37.9422 30.97 37.203 31.6422 36.6744C32.3144 36.1458 33.1448 35.8584 34 35.8584C34.8552 35.8584 35.6856 36.1458 36.3578 36.6744C37.03 37.203 37.5051 37.9422 37.7068 38.7733L39.1943 44.8999C39.6711 43.4722 40.124 42.1733 40.1811 40.0855C40.2304 38.4933 40.488 36.9145 40.9474 35.3892C41.094 34.8845 41.4224 34.4521 41.8691 34.1753C43.7431 33.0172 45.1562 30.4287 45.1562 28.1563C45.1562 27.0519 44.812 25.975 44.1715 25.0753C43.5309 24.1757 42.626 23.498 41.5824 23.1366C40.5389 22.7751 39.4086 22.7479 38.3489 23.0587C37.2891 23.3694 36.3526 24.0027 35.6695 24.8705C35.4706 25.1228 35.2171 25.3267 34.928 25.4669C34.639 25.6071 34.3219 25.6799 34.0007 25.6799C33.6794 25.6799 33.3623 25.6071 33.0733 25.4669C32.7843 25.3267 32.5308 25.1228 32.3319 24.8705C31.8359 24.2372 31.202 23.7255 30.4784 23.3743C29.7548 23.0231 28.9606 22.8416 28.1562 22.8438Z" fill="#F7AB59"/>
<g opacity="0.2">
<path opacity="0.2" d="M47.2812 28.1562C47.2812 31.1405 45.5241 34.4143 42.9874 35.9829C42.5773 37.3355 42.3482 38.7364 42.306 40.1492C42.2277 42.6912 41.6234 44.3341 41.1028 45.8946C40.9639 46.3122 40.6929 46.6731 40.3308 46.923C39.9686 47.1729 39.535 47.2982 39.0954 47.2799C38.6557 47.2616 38.234 47.1007 37.8939 46.8216C37.5538 46.5425 37.3137 46.1602 37.21 45.7326C35.4967 38.6789 35.6309 39.173 35.5339 38.9658C38.0047 36.7126 39.711 33.7448 40.4152 30.476C41.1194 27.2071 40.7864 23.8 39.4625 20.7293C43.5877 20.469 47.2812 23.8212 47.2812 28.1562Z" fill="#F7AB59"/>
</g>
<path d="M65.875 62.6875H2.125C1.56141 62.6875 1.02091 62.4636 0.622398 62.0651C0.223883 61.6666 0 61.1261 0 60.5625V7.4375C0 6.87391 0.223883 6.33341 0.622398 5.9349C1.02091 5.53638 1.56141 5.3125 2.125 5.3125H65.875C66.4386 5.3125 66.9791 5.53638 67.3776 5.9349C67.7761 6.33341 68 6.87391 68 7.4375V60.5625C68 61.1261 67.7761 61.6666 67.3776 62.0651C66.9791 62.4636 66.4386 62.6875 65.875 62.6875ZM4.25 58.4375H63.75V9.5625H4.25V58.4375Z" fill="#F7AB59"/>
<path d="M16.3359 48.875H8.89844C8.33485 48.875 7.79435 48.6511 7.39584 48.2526C6.99732 47.8541 6.77344 47.3136 6.77344 46.75C6.77344 46.1864 6.99732 45.6459 7.39584 45.2474C7.79435 44.8489 8.33485 44.625 8.89844 44.625H16.3359C16.8995 44.625 17.44 44.8489 17.8385 45.2474C18.2371 45.6459 18.4609 46.1864 18.4609 46.75C18.4609 47.3136 18.2371 47.8541 17.8385 48.2526C17.44 48.6511 16.8995 48.875 16.3359 48.875Z" fill="#F7AB59"/>
<path d="M20.3203 55.5156H8.89844C8.33485 55.5156 7.79435 55.2917 7.39584 54.8932C6.99732 54.4947 6.77344 53.9542 6.77344 53.3906C6.77344 52.827 6.99732 52.2865 7.39584 51.888C7.79435 51.4895 8.33485 51.2656 8.89844 51.2656H20.3203C20.8839 51.2656 21.4244 51.4895 21.8229 51.888C22.2214 52.2865 22.4453 52.827 22.4453 53.3906C22.4453 53.9542 22.2214 54.4947 21.8229 54.8932C21.4244 55.2917 20.8839 55.5156 20.3203 55.5156Z" fill="#F7AB59"/>
<path d="M59.1016 48.875H51.6641C51.1005 48.875 50.56 48.6511 50.1615 48.2526C49.7629 47.8541 49.5391 47.3136 49.5391 46.75C49.5391 46.1864 49.7629 45.6459 50.1615 45.2474C50.56 44.8489 51.1005 44.625 51.6641 44.625H59.1016C59.6651 44.625 60.2057 44.8489 60.6042 45.2474C61.0027 45.6459 61.2266 46.1864 61.2266 46.75C61.2266 47.3136 61.0027 47.8541 60.6042 48.2526C60.2057 48.6511 59.6651 48.875 59.1016 48.875Z" fill="#F7AB59"/>
<path d="M59.1016 55.5156H47.6797C47.1161 55.5156 46.5756 55.2917 46.1771 54.8932C45.7786 54.4947 45.5547 53.9542 45.5547 53.3906C45.5547 52.827 45.7786 52.2865 46.1771 51.888C46.5756 51.4895 47.1161 51.2656 47.6797 51.2656H59.1016C59.6651 51.2656 60.2057 51.4895 60.6042 51.888C61.0027 52.2865 61.2266 52.827 61.2266 53.3906C61.2266 53.9542 61.0027 54.4947 60.6042 54.8932C60.2057 55.2917 59.6651 55.5156 59.1016 55.5156Z" fill="#F7AB59"/>
<path d="M59.1016 16.7344H47.6797C47.1161 16.7344 46.5756 16.5105 46.1771 16.112C45.7786 15.7135 45.5547 15.173 45.5547 14.6094C45.5547 14.0458 45.7786 13.5053 46.1771 13.1068C46.5756 12.7083 47.1161 12.4844 47.6797 12.4844H59.1016C59.6651 12.4844 60.2057 12.7083 60.6042 13.1068C61.0027 13.5053 61.2266 14.0458 61.2266 14.6094C61.2266 15.173 61.0027 15.7135 60.6042 16.112C60.2057 16.5105 59.6651 16.7344 59.1016 16.7344Z" fill="#F7AB59"/>
<g opacity="0.2">
<path d="M65.875 7.4375V60.5625H24.9063C35.5982 56.633 44.7114 49.3143 50.8563 39.7228C57.0011 30.1312 59.8403 18.793 58.9408 7.4375H65.875Z" fill="#F7AB59"/>
</g>
</svg>
