<svg width="68" height="68" viewBox="0 0 68 68" fill="none" xmlns="http://www.w3.org/2000/svg">
<g clip-path="url(#clip0_2_237)">
<path d="M32.0078 64.0156C14.3185 64.0156 0 49.6998 0 32.0078C0 14.3159 14.3159 0 32.0078 0C49.6998 0 64.0156 14.3159 64.0156 32.0078C64.0175 34.7984 63.6549 37.5773 62.9372 40.2741C62.7706 40.7933 62.4108 41.2286 61.9322 41.4899C61.4535 41.7513 60.8928 41.8186 60.3659 41.678C59.8391 41.5374 59.3864 41.1997 59.1016 40.7346C58.8168 40.2696 58.7217 39.7129 58.8359 39.1797C59.4568 36.8397 59.7693 34.4287 59.7656 32.0078C59.7656 16.7025 47.3131 4.25 32.0078 4.25C16.7025 4.25 4.25 16.7025 4.25 32.0078C4.25 47.3131 16.7025 59.7656 32.0078 59.7656C35.9469 59.7744 39.8419 58.9374 43.4297 57.3112C43.9433 57.0788 44.5281 57.0598 45.0557 57.2586C45.5832 57.4573 46.0102 57.8575 46.2427 58.3711C46.4751 58.8847 46.4941 59.4695 46.2953 59.9971C46.0966 60.5246 45.6964 60.9516 45.1828 61.1841C41.0444 63.06 36.5515 64.0256 32.0078 64.0156Z" fill="#F7AB59"/>
<path d="M32.0078 56.9766C18.2405 56.9766 7.03906 45.7752 7.03906 32.0078C7.03906 18.2405 18.2405 7.03906 32.0078 7.03906C45.7752 7.03906 56.9766 18.2405 56.9766 32.0078C56.987 35.8188 56.1161 39.5807 54.4319 42.9994C54.1773 43.4945 53.7385 43.87 53.21 44.045C52.6815 44.22 52.1053 44.1806 51.6056 43.9352C51.1058 43.6898 50.7222 43.2581 50.5375 42.7329C50.3527 42.2077 50.3814 41.631 50.6175 41.1267C52.0141 38.2903 52.736 35.1694 52.7266 32.0078C52.7266 20.5859 43.4297 11.2891 32.0078 11.2891C20.5859 11.2891 11.2891 20.5859 11.2891 32.0078C11.2891 43.4297 20.5859 52.7266 32.0078 52.7266C35.0004 52.7341 37.9585 52.0877 40.6752 50.8327C40.9286 50.7158 41.2025 50.65 41.4814 50.639C41.7602 50.628 42.0385 50.6721 42.3003 50.7687C42.5622 50.8652 42.8024 51.0124 43.0073 51.2018C43.2123 51.3912 43.3779 51.6192 43.4948 51.8726C43.6116 52.126 43.6774 52.4 43.6884 52.6788C43.6994 52.9577 43.6553 53.2359 43.5588 53.4978C43.4622 53.7596 43.315 53.9998 43.1256 54.2048C42.9362 54.4097 42.7083 54.5753 42.4548 54.6922C39.1805 56.2055 35.615 56.9851 32.0078 56.9766Z" fill="#F7AB59"/>
<path d="M32.0078 37.4531C30.9308 37.4531 29.878 37.1338 28.9825 36.5354C28.0871 35.9371 27.3891 35.0866 26.977 34.0916C26.5648 33.0966 26.457 32.0018 26.6671 30.9455C26.8772 29.8892 27.3958 28.9189 28.1574 28.1574C28.9189 27.3959 29.8892 26.8772 30.9455 26.6671C32.0017 26.457 33.0966 26.5649 34.0916 26.977C35.0866 27.3891 35.937 28.0871 36.5354 28.9826C37.1337 29.878 37.4531 30.9308 37.4531 32.0078C37.4531 33.452 36.8794 34.837 35.8582 35.8582C34.837 36.8794 33.452 37.4531 32.0078 37.4531ZM32.0078 30.8125C31.7714 30.8125 31.5403 30.8826 31.3437 31.0139C31.1471 31.1453 30.9939 31.332 30.9035 31.5504C30.813 31.7688 30.7893 32.0091 30.8354 32.241C30.8816 32.4729 30.9954 32.6859 31.1626 32.853C31.3297 33.0202 31.5427 33.134 31.7746 33.1802C32.0065 33.2263 32.2468 33.2026 32.4652 33.1121C32.6836 33.0217 32.8703 32.8685 33.0016 32.6719C33.133 32.4753 33.2031 32.2442 33.2031 32.0078C33.2031 31.6908 33.0772 31.3868 32.853 31.1626C32.6288 30.9384 32.3248 30.8125 32.0078 30.8125Z" fill="#F7AB59"/>
<path d="M32.0078 30.8125C31.4442 30.8125 30.9037 30.5886 30.5052 30.1901C30.1067 29.7916 29.8828 29.2511 29.8828 28.6875V19.3906C29.8828 18.827 30.1067 18.2865 30.5052 17.888C30.9037 17.4895 31.4442 17.2656 32.0078 17.2656C32.5714 17.2656 33.1119 17.4895 33.5104 17.888C33.9089 18.2865 34.1328 18.827 34.1328 19.3906V28.6875C34.1328 29.2511 33.9089 29.7916 33.5104 30.1901C33.1119 30.5886 32.5714 30.8125 32.0078 30.8125Z" fill="#F7AB59"/>
<path d="M53.7891 46.4697C53.3461 46.4698 52.9141 46.3315 52.5536 46.0741C52.1931 45.8167 51.922 45.453 51.7783 45.034C51.5842 44.466 51.295 43.9352 50.923 43.4641C50.7503 43.2449 50.6225 42.9938 50.5469 42.7252C50.4713 42.4565 50.4493 42.1757 50.4822 41.8985C50.5152 41.6214 50.6023 41.3535 50.7388 41.1101C50.8753 40.8667 51.0584 40.6525 51.2776 40.4798C51.4968 40.3072 51.7479 40.1794 52.0166 40.1038C52.2852 40.0281 52.5661 40.0061 52.8432 40.0391C53.1203 40.072 53.3882 40.1592 53.6316 40.2957C53.8751 40.4321 54.0892 40.6152 54.2619 40.8344C54.9297 41.6814 55.4497 42.6352 55.7999 43.6554C55.9096 43.9754 55.9414 44.317 55.8925 44.6518C55.8436 44.9865 55.7155 45.3048 55.5188 45.58C55.3221 45.8553 55.0626 46.0796 54.7617 46.2344C54.4608 46.3891 54.1274 46.4698 53.7891 46.4697Z" fill="#F7AB59"/>
<path d="M57.7734 68C56.8423 68.0017 55.9377 67.6897 55.2057 67.1143C54.4737 66.5389 53.9568 65.7336 53.7386 64.8284L52.5938 60.1136L51.4489 64.8284C51.2348 65.7022 50.7427 66.4828 50.0466 67.0528C49.3505 67.6227 48.4882 67.9511 47.5893 67.9886C46.6904 68.026 45.8037 67.7705 45.0626 67.2604C44.3215 66.7504 43.7662 66.0134 43.4802 65.1604L43.0923 63.9957C42.5333 62.3207 42.2223 60.573 42.1693 58.808C42.1405 57.8227 42.0069 56.8432 41.7709 55.8861C39.0349 53.8249 37.1875 50.1951 37.1875 46.75C37.1873 44.9626 37.688 43.211 38.6328 41.6939C39.5776 40.1767 40.9287 38.9547 42.5328 38.1664C44.1369 37.3782 45.9298 37.0553 47.7082 37.2344C49.4865 37.4135 51.179 38.0874 52.5938 39.1796C54.0085 38.0874 55.701 37.4135 57.4793 37.2344C59.2577 37.0553 61.0506 37.3782 62.6547 38.1664C64.2588 38.9547 65.6099 40.1767 66.5547 41.6939C67.4995 43.211 68.0002 44.9626 68 46.75C68 50.1951 66.1526 53.8249 63.4246 55.8861C63.1885 56.8432 63.055 57.8227 63.0262 58.808C62.9385 61.6861 62.2532 63.5481 61.7153 65.1604C61.4404 65.9882 60.9115 66.7082 60.2038 67.218C59.4961 67.7277 58.6456 68.0014 57.7734 68ZM46.75 41.4375C45.341 41.4375 43.9898 41.9972 42.9935 42.9934C41.9972 43.9897 41.4375 45.341 41.4375 46.75C41.4375 49.0224 42.8506 51.6109 44.7246 52.769C45.1714 53.0458 45.4998 53.4782 45.6463 53.9829C46.1057 55.5082 46.3633 57.087 46.4127 58.6792C46.4764 60.7949 46.9519 62.1522 47.3995 63.4936L48.887 57.367C49.0886 56.5359 49.5637 55.7967 50.236 55.2681C50.9082 54.7395 51.7386 54.4521 52.5938 54.4521C53.4489 54.4521 54.2793 54.7395 54.9515 55.2681C55.6238 55.7967 56.0989 56.5359 56.3005 57.367L57.788 63.4936C58.2648 62.0659 58.7177 60.767 58.7748 58.6792C58.8238 57.087 59.0815 55.5081 59.5412 53.9829C59.6877 53.4782 60.0161 53.0458 60.4629 52.769C62.3369 51.6109 63.75 49.0224 63.75 46.75C63.75 45.6456 63.4057 44.5687 62.7652 43.669C62.1247 42.7694 61.2197 42.0917 60.1762 41.7303C59.1326 41.3688 58.0024 41.3416 56.9426 41.6523C55.8829 41.9631 54.9463 42.5964 54.2632 43.4642C54.0643 43.7165 53.8108 43.9204 53.5218 44.0606C53.2327 44.2007 52.9157 44.2736 52.5944 44.2736C52.2732 44.2736 51.9561 44.2007 51.667 44.0606C51.378 43.9204 51.1245 43.7165 50.9256 43.4642C50.4297 42.8309 49.7958 42.3192 49.0722 41.968C48.3486 41.6168 47.5543 41.4353 46.75 41.4375Z" fill="#F7AB59"/>
<g opacity="0.2">
<path opacity="0.2" d="M65.875 46.75C65.875 49.7343 64.1178 53.0081 61.5811 54.5766C61.1711 55.9292 60.942 57.3302 60.8998 58.7429C60.8214 61.285 60.2171 62.9279 59.6965 64.4884C59.5576 64.9059 59.2867 65.2669 58.9245 65.5168C58.5624 65.7667 58.1287 65.892 57.6891 65.8737C57.2495 65.8554 56.8278 65.6945 56.4876 65.4154C56.1475 65.1362 55.9075 64.754 55.8038 64.3264C54.0905 57.2727 54.2246 57.7668 54.1277 57.5596C56.5984 55.3064 58.3048 52.3386 59.009 49.0697C59.7132 45.8009 59.3801 42.3937 58.0563 39.3231C62.1814 39.0628 65.875 42.415 65.875 46.75Z" fill="#F7AB59"/>
</g>
<path d="M32.0078 14.4766C31.4442 14.4766 30.9037 14.2527 30.5052 13.8542C30.1067 13.4556 29.8828 12.9151 29.8828 12.3516V9.16406C29.8828 8.60048 30.1067 8.05998 30.5052 7.66146C30.9037 7.26295 31.4442 7.03906 32.0078 7.03906C32.5714 7.03906 33.1119 7.26295 33.5104 7.66146C33.9089 8.05998 34.1328 8.60048 34.1328 9.16406V12.3516C34.1328 12.9151 33.9089 13.4556 33.5104 13.8542C33.1119 14.2527 32.5714 14.4766 32.0078 14.4766Z" fill="#F7AB59"/>
<path d="M16.6015 19.611L14.3437 17.3532C13.9451 16.9546 13.7212 16.4141 13.7212 15.8504C13.7212 15.2868 13.9451 14.7462 14.3437 14.3476C14.7423 13.9491 15.2828 13.7252 15.8465 13.7252C16.4101 13.7252 16.9507 13.9491 17.3492 14.3476L19.6071 16.6054C20.0056 17.004 20.2295 17.5446 20.2295 18.1082C20.2295 18.6719 20.0056 19.2124 19.6071 19.611C19.2085 20.0095 18.6679 20.2335 18.1043 20.2335C17.5406 20.2335 17.0001 20.0095 16.6015 19.611Z" fill="#F7AB59"/>
<path d="M12.3516 34.1328H9.16406C8.60048 34.1328 8.05998 33.9089 7.66146 33.5104C7.26295 33.1119 7.03906 32.5714 7.03906 32.0078C7.03906 31.4442 7.26295 30.9037 7.66146 30.5052C8.05998 30.1067 8.60048 29.8828 9.16406 29.8828H12.3516C12.9151 29.8828 13.4556 30.1067 13.8542 30.5052C14.2527 30.9037 14.4766 31.4442 14.4766 32.0078C14.4766 32.5714 14.2527 33.1119 13.8542 33.5104C13.4556 33.9089 12.9151 34.1328 12.3516 34.1328Z" fill="#F7AB59"/>
<path d="M14.3518 49.6639C14.1544 49.4666 13.9979 49.2323 13.8911 48.9744C13.7842 48.7166 13.7292 48.4402 13.7292 48.1611C13.7292 47.882 13.7842 47.6057 13.8911 47.3478C13.9979 47.09 14.1544 46.8557 14.3518 46.6583L16.6096 44.4005C17.0092 44.0025 17.5506 43.7795 18.1146 43.7806C18.6787 43.7818 19.2191 44.0069 19.6172 44.4065C20.0152 44.8061 20.2382 45.3475 20.2371 45.9115C20.2359 46.4755 20.0108 47.016 19.6112 47.414L17.3534 49.6719C16.954 50.0682 16.4136 50.2899 15.8509 50.2885C15.2883 50.287 14.7491 50.0624 14.3518 49.6639Z" fill="#F7AB59"/>
<path d="M32.0078 56.9766C31.4442 56.9766 30.9037 56.7527 30.5052 56.3542C30.1067 55.9557 29.8828 55.4151 29.8828 54.8516V51.6641C29.8828 51.1005 30.1067 50.56 30.5052 50.1615C30.9037 49.7629 31.4442 49.5391 32.0078 49.5391C32.5714 49.5391 33.1119 49.7629 33.5104 50.1615C33.9089 50.56 34.1328 51.1005 34.1328 51.6641V54.8516C34.1328 55.4151 33.9089 55.9557 33.5104 56.3542C33.1119 56.7527 32.5714 56.9766 32.0078 56.9766Z" fill="#F7AB59"/>
<path d="M54.8516 34.1328H51.6641C51.1005 34.1328 50.56 33.9089 50.1615 33.5104C49.7629 33.1119 49.5391 32.5714 49.5391 32.0078C49.5391 31.4442 49.7629 30.9037 50.1615 30.5052C50.56 30.1067 51.1005 29.8828 51.6641 29.8828H54.8516C55.4151 29.8828 55.9557 30.1067 56.3542 30.5052C56.7527 30.9037 56.9766 31.4442 56.9766 32.0078C56.9766 32.5714 56.7527 33.1119 56.3542 33.5104C55.9557 33.9089 55.4151 34.1328 54.8516 34.1328Z" fill="#F7AB59"/>
<path d="M44.4046 19.6111C44.2072 19.4137 44.0506 19.1794 43.9438 18.9216C43.837 18.6637 43.782 18.3874 43.782 18.1083C43.782 17.8292 43.837 17.5528 43.9438 17.295C44.0506 17.0371 44.2072 16.8028 44.4046 16.6055L46.6624 14.3477C47.061 13.9491 47.6015 13.7252 48.1652 13.7252C48.7288 13.7252 49.2694 13.9491 49.6679 14.3477C50.0665 14.7462 50.2904 15.2868 50.2904 15.8505C50.2904 16.4141 50.0665 16.9547 49.6679 17.3532L47.4101 19.6111C47.2128 19.8084 46.9785 19.965 46.7207 20.0718C46.4628 20.1786 46.1865 20.2336 45.9074 20.2336C45.6283 20.2336 45.3519 20.1786 45.094 20.0718C44.8362 19.965 44.6019 19.8084 44.4046 19.6111Z" fill="#F7AB59"/>
<path d="M23.998 40.0178C23.5998 39.6193 23.3761 39.079 23.3761 38.5157C23.3761 37.9523 23.5998 37.412 23.998 37.0135L28.1563 32.8539C28.5549 32.4553 29.0955 32.2314 29.6591 32.2314C30.2228 32.2314 30.7633 32.4553 31.1619 32.8539C31.5604 33.2524 31.7843 33.793 31.7843 34.3566C31.7843 34.9203 31.5604 35.4608 31.1619 35.8594L27.0022 40.0191C26.6035 40.4171 26.0632 40.6406 25.4998 40.6403C24.9365 40.6401 24.3963 40.4162 23.998 40.0178Z" fill="#F7AB59"/>
<g opacity="0.2">
<path opacity="0.2" d="M44.3115 59.2476C40.4149 61.0033 36.1875 61.9047 31.9136 61.8912C27.6397 61.8777 23.4182 60.9496 19.5327 59.1692C23.5748 59.9933 27.7438 59.9711 31.7769 59.104C35.81 58.237 39.6198 56.544 42.9661 54.1317C43.1715 54.2912 43.3852 54.4397 43.6063 54.5766C44.3035 56.9632 44.2557 58.3631 44.3115 59.2476Z" fill="#F7AB59"/>
</g>
<g opacity="0.2">
<path d="M60.8839 39.7255C59.5063 39.2461 58.0181 39.1824 56.6046 39.5423C55.191 39.9022 53.9145 40.6698 52.9338 41.7496C59.2995 27.0473 52.9086 9.5917 37.9751 2.72131C54.7188 6.10936 65.3438 23.019 60.8839 39.7255Z" fill="#F7AB59"/>
</g>
<g opacity="0.2">
<path opacity="0.2" d="M39.4705 48.3345C39.7969 49.9602 40.518 51.4809 41.5702 52.7624C37.874 54.4622 33.7912 55.1449 29.7431 54.7401C25.695 54.3352 21.8283 52.8575 18.5419 50.4595C21.9456 51.8067 25.6231 52.3168 29.2651 51.947C32.907 51.5772 36.4069 50.3383 39.4705 48.3345Z" fill="#F7AB59"/>
</g>
<g opacity="0.2">
<path opacity="0.2" d="M52.5247 42.063C51.9018 41.2941 51.1313 40.6576 50.2586 40.1909C49.3859 39.7242 48.4287 39.4368 47.4433 39.3456C49.8265 34.519 50.43 29.0062 49.1475 23.7782C47.8649 18.5503 44.7786 13.9427 40.4322 10.767C52.9524 15.7369 58.3114 30.2812 52.5247 42.063Z" fill="#F7AB59"/>
</g>
</g>
<defs>
<clipPath id="clip0_2_237">
<rect width="68" height="68" fill="white"/>
</clipPath>
</defs>
</svg>
