<svg width="68" height="68" viewBox="0 0 68 68" fill="none" xmlns="http://www.w3.org/2000/svg">
<path d="M58.4455 62.0593L46.7646 54.1875H6.375C4.68478 54.1857 3.0643 53.5135 1.86914 52.3184C0.673972 51.1232 0.0017579 49.5027 0 47.8125L0 11.9531C0.0017579 10.2629 0.673972 8.64242 1.86914 7.44726C3.0643 6.2521 4.68478 5.57988 6.375 5.57812H61.625C63.3152 5.57988 64.9357 6.2521 66.1309 7.44726C67.326 8.64242 67.9982 10.2629 68 11.9531V47.8125C67.9987 49.48 67.3447 51.0807 66.1781 52.2721C65.0115 53.4636 63.4249 54.1511 61.7578 54.1875V60.2969C61.7578 60.6824 61.653 61.0606 61.4545 61.3911C61.256 61.7216 60.9713 61.9919 60.631 62.1729C60.2906 62.354 59.9075 62.4391 59.5225 62.4191C59.1375 62.3991 58.7652 62.2747 58.4455 62.0593ZM6.375 9.82812C5.81141 9.82812 5.27091 10.052 4.8724 10.4505C4.47388 10.849 4.25 11.3895 4.25 11.9531V47.8125C4.25 48.3761 4.47388 48.9166 4.8724 49.3151C5.27091 49.7136 5.81141 49.9375 6.375 49.9375H47.4141C47.8371 49.9375 48.2505 50.0637 48.6014 50.3001L57.5078 56.3019V52.0625C57.5078 51.4989 57.7317 50.9584 58.1302 50.5599C58.5287 50.1614 59.0692 49.9375 59.6328 49.9375H61.625C62.1886 49.9375 62.7291 49.7136 63.1276 49.3151C63.5261 48.9166 63.75 48.3761 63.75 47.8125V11.9531C63.75 11.3895 63.5261 10.849 63.1276 10.4505C62.7291 10.052 62.1886 9.82812 61.625 9.82812H6.375Z" fill="#F7AB59"/>
<path d="M35.1953 23.7589C34.7523 23.759 34.3203 23.6207 33.9598 23.3633C33.5993 23.1059 33.3282 22.7422 33.1845 22.3232C32.9906 21.7558 32.7019 21.2254 32.3305 20.7547C32.1555 20.5357 32.0256 20.2844 31.9481 20.015C31.8707 19.7456 31.8473 19.4636 31.8793 19.1852C31.9113 18.9068 31.9981 18.6374 32.1346 18.3926C32.2712 18.1479 32.4548 17.9325 32.6749 17.759C32.895 17.5855 33.1472 17.4573 33.4171 17.3817C33.687 17.306 33.9692 17.2846 34.2474 17.3184C34.5256 17.3523 34.7944 17.4409 35.0382 17.5791C35.282 17.7173 35.4961 17.9024 35.6681 18.1237C36.336 18.9707 36.8559 19.9244 37.2061 20.9446C37.3158 21.2646 37.3476 21.6062 37.2987 21.941C37.2498 22.2757 37.1217 22.594 36.925 22.8692C36.7283 23.1445 36.4688 23.3689 36.1679 23.5236C35.8671 23.6783 35.5336 23.759 35.1953 23.7589Z" fill="#F7AB59"/>
<path d="M39.1797 45.289C38.2486 45.2908 37.344 44.9788 36.6119 44.4033C35.8799 43.8279 35.3631 43.0226 35.1448 42.1175L34 37.4026L32.8552 42.1175C32.6411 42.9913 32.149 43.7719 31.4529 44.3418C30.7568 44.9118 29.8944 45.2402 28.9955 45.2776C28.0967 45.3151 27.21 45.0595 26.4689 44.5495C25.7278 44.0394 25.1724 43.3025 24.8864 42.4495L24.4986 41.2847C23.9395 39.6098 23.6285 37.862 23.5755 36.0971C23.5467 35.1117 23.4132 34.1323 23.1771 33.1752C20.4412 31.1139 18.5938 27.4842 18.5938 24.039C18.5935 22.2517 19.0942 20.5001 20.039 18.9829C20.9838 17.4657 22.3349 16.2437 23.9391 15.4555C25.5432 14.6673 27.3361 14.3444 29.1144 14.5235C30.8927 14.7026 32.5853 15.3765 34 16.4687C35.4147 15.3765 37.1073 14.7026 38.8856 14.5235C40.6639 14.3444 42.4568 14.6673 44.0609 15.4555C45.6651 16.2437 47.0162 17.4657 47.961 18.9829C48.9058 20.5001 49.4065 22.2517 49.4062 24.039C49.4062 27.4842 47.5588 31.1139 44.8309 33.1752C44.5948 34.1323 44.4612 35.1117 44.4324 36.0971C44.3448 38.9751 43.6595 40.8371 43.1216 42.4495C42.8467 43.2772 42.3177 43.9972 41.61 44.507C40.9023 45.0168 40.0519 45.2904 39.1797 45.289ZM28.1562 18.7265C26.7473 18.7265 25.396 19.2862 24.3997 20.2825C23.4035 21.2788 22.8438 22.6301 22.8438 24.039C22.8438 26.3128 24.2569 28.9 26.1295 30.0581C26.5768 30.3346 26.9057 30.7671 27.0526 31.272C27.5121 32.7972 27.7697 34.3761 27.8189 35.9682C27.8827 38.0932 28.3595 39.4439 28.8057 40.7827L30.2932 34.656C30.4949 33.825 30.97 33.0858 31.6422 32.5572C32.3144 32.0286 33.1448 31.7412 34 31.7412C34.8552 31.7412 35.6856 32.0286 36.3578 32.5572C37.03 33.0858 37.5051 33.825 37.7068 34.656L39.1943 40.7827C39.6698 39.355 40.124 38.056 40.1811 35.9682C40.2301 34.376 40.4877 32.7972 40.9474 31.272C41.0943 30.7671 41.4232 30.3346 41.8705 30.0581C43.7431 28.9 45.1562 26.3128 45.1562 24.039C45.1562 22.9346 44.812 21.8577 44.1715 20.9581C43.5309 20.0584 42.626 19.3808 41.5824 19.0193C40.5389 18.6579 39.4086 18.6306 38.3489 18.9414C37.2891 19.2522 36.3526 19.8855 35.6695 20.7532C35.4706 21.0055 35.2171 21.2094 34.928 21.3496C34.639 21.4898 34.3219 21.5626 34.0007 21.5626C33.6794 21.5626 33.3623 21.4898 33.0733 21.3496C32.7843 21.2094 32.5308 21.0055 32.3319 20.7532C31.8359 20.12 31.202 19.6083 30.4784 19.257C29.7548 18.9058 28.9606 18.7244 28.1562 18.7265Z" fill="#F7AB59"/>
<g opacity="0.2">
<path opacity="0.2" d="M47.2813 24.0391C47.2813 27.0234 45.5242 30.2972 42.9874 31.8657C42.5774 33.2183 42.3483 34.6193 42.3061 36.0321C42.2278 38.5741 41.6235 40.217 41.1028 41.7775C40.9639 42.195 40.693 42.556 40.3308 42.8059C39.9687 43.0558 39.535 43.1811 39.0954 43.1628C38.6558 43.1445 38.2341 42.9836 37.894 42.7045C37.5538 42.4253 37.3138 42.0431 37.2101 41.6155C35.4968 34.5618 35.6309 35.0559 35.534 34.8487C38.0047 32.5955 39.7111 29.6277 40.4153 26.3588C41.1195 23.09 40.7864 19.6829 39.4626 16.6122C43.5877 16.3519 47.2813 19.7041 47.2813 24.0391Z" fill="#F7AB59"/>
</g>
<g opacity="0.2">
<path d="M65.875 11.9531V47.8125C65.875 48.9397 65.4272 50.0207 64.6302 50.8177C63.8332 51.6147 62.7522 52.0625 61.625 52.0625H59.6328V60.2969L47.4141 52.0625H25.4004C47.5801 49.5258 62.0301 29.406 59.9834 7.70312H61.625C62.7522 7.70313 63.8332 8.15089 64.6302 8.94792C65.4272 9.74495 65.875 10.826 65.875 11.9531Z" fill="#F7AB59"/>
</g>
</svg>
