<svg width="46" height="60" viewBox="0 0 46 60" fill="none" xmlns="http://www.w3.org/2000/svg">
<ellipse cx="23" cy="15.1821" rx="4.6" ry="4.55466" stroke="#525556" stroke-width="1.5"/>
<path fill-rule="evenodd" clip-rule="evenodd" d="M23 0.768311C14.1244 0.768311 6.91666 7.89441 6.91666 16.7005V28.8462C6.91666 36.8776 12.912 43.5116 20.7 44.6167V43.1C13.7338 42.0082 8.41666 36.0367 8.41666 28.8462V16.7005C8.41666 8.73681 14.9388 2.26831 23 2.26831C31.0612 2.26831 37.5833 8.73681 37.5833 16.7005V28.8462C37.5833 36.0367 32.2662 42.0082 25.3 43.1V44.6167C33.088 43.5116 39.0833 36.8776 39.0833 28.8462V16.7005C39.0833 7.89441 31.8756 0.768311 23 0.768311Z" fill="#525556"/>
<path d="M23 57.7226L22.4723 58.2556L23 58.7781L23.5277 58.2556L23 57.7226ZM23.5277 58.2556L29.661 52.1827L28.6056 51.1168L22.4723 57.1897L23.5277 58.2556ZM23.5277 57.1897L17.3944 51.1168L16.339 52.1827L22.4723 58.2556L23.5277 57.1897ZM23.75 57.7226V31.1538H22.25V57.7226H23.75Z" fill="#525556"/>
</svg>
