<svg width="30" height="30" viewBox="0 0 30 30" fill="none" xmlns="http://www.w3.org/2000/svg">
<ellipse cx="14.4737" cy="9.09754" rx="5.97254" ry="5.97254" stroke="#525556" stroke-width="1.5" stroke-linecap="round" stroke-linejoin="round"/>
<path fill-rule="evenodd" clip-rule="evenodd" d="M5.00002 23.3769C4.99842 22.9571 5.09232 22.5424 5.27462 22.1641C5.8467 21.02 7.45997 20.4136 8.79865 20.139C9.7641 19.9329 10.7429 19.7953 11.7277 19.7271C13.551 19.5669 15.3849 19.5669 17.2083 19.7271C18.193 19.7961 19.1717 19.9337 20.1373 20.139C21.476 20.4136 23.0893 20.9628 23.6613 22.1641C24.028 22.9351 24.028 23.8302 23.6613 24.6012C23.0893 25.8026 21.476 26.3518 20.1373 26.6149C19.173 26.8295 18.1939 26.971 17.2083 27.0383C15.7242 27.1641 14.2332 27.187 12.746 27.1069C12.4028 27.1069 12.071 27.1069 11.7277 27.0383C10.7458 26.9718 9.7704 26.8303 8.81009 26.6149C7.45997 26.3518 5.85814 25.8026 5.27462 24.6012C5.09325 24.2186 4.99944 23.8004 5.00002 23.3769Z" stroke="#525556" stroke-width="1.5" stroke-linecap="round" stroke-linejoin="round"/>
</svg>
