<svg width="30" height="30" viewBox="0 0 30 30" fill="none" xmlns="http://www.w3.org/2000/svg">
<path fill-rule="evenodd" clip-rule="evenodd" d="M3.73791 6.09067C4.13332 5.43598 6.31187 3.05471 7.86652 3.12659C8.33124 3.1651 8.74205 3.44624 9.07583 3.7723C9.84224 4.5207 12.0362 7.35127 12.1607 7.94691C12.4637 9.40776 10.7229 10.2499 11.2557 11.7223C12.6139 15.0458 14.9542 17.386 18.2792 18.7429C19.7504 19.2756 20.5925 17.5349 22.0535 17.8391C22.6479 17.9637 25.4798 20.1575 26.2283 20.9239C26.5531 21.2564 26.8355 21.6684 26.874 22.1331C26.9318 23.7699 24.4028 25.9791 23.9098 26.2615C22.7467 27.0934 21.2293 27.0793 19.3794 26.2192C14.2173 24.0715 5.96782 15.9778 3.78028 10.6209C2.94326 8.78132 2.88549 7.25371 3.73791 6.09067Z" stroke="#525556" stroke-width="1.5" stroke-linecap="round" stroke-linejoin="round"/>
</svg>
