<svg width="30" height="30" viewBox="0 0 30 30" fill="none" xmlns="http://www.w3.org/2000/svg">
<rect x="0.5" y="0.5" width="29" height="29" rx="14.5" stroke="#F7AB59"/>
<path d="M22.6432 17.6168L22.6147 16.9965L17.7525 16.302L16.767 18.2318C15.813 17.7135 14.8612 16.9823 13.9395 16.0598C12.9727 15.093 12.2362 14.1405 11.7502 13.2203L13.8472 12.1725L11.7495 7.28101L11.1795 7.36351C10.194 7.50601 9.33823 7.93426 8.63549 8.63551C6.25649 11.0145 7.18799 15.6735 10.7565 19.2428C12.9922 21.4778 15.6562 22.6793 17.9197 22.6793C19.269 22.6793 20.475 22.2525 21.3637 21.3638C22.272 20.4563 22.7145 19.161 22.6432 17.6168ZM20.3032 20.3033C18.5782 22.0268 14.6932 21.057 11.8177 18.1823C8.94373 15.3075 7.97174 11.4218 9.69673 9.69751C10.029 9.36526 10.4145 9.12376 10.8457 8.97901L11.9107 11.4638L11.0805 11.8785C10.716 12.0608 10.4467 12.3758 10.3222 12.765C10.1977 13.1565 10.2352 13.572 10.4287 13.9358C10.9822 14.9775 11.8072 16.0493 12.8797 17.1218C13.9027 18.1455 14.97 18.963 16.0507 19.5503C16.4137 19.7483 16.8472 19.791 17.238 19.668C17.6287 19.5458 17.9437 19.2773 18.1275 18.9105L18.612 17.94L21.1372 18.3008C21.0847 18.9713 20.8777 19.7295 20.3032 20.3033Z" fill="#F7AB59"/>
<path d="M21 15H22.5C22.5 10.8645 19.1355 7.5 15 7.5V9C18.3082 9 21 11.6918 21 15Z" fill="#F7AB59"/>
<path d="M18 15H19.5C19.5 12.5182 17.4818 10.5 15 10.5V12C16.6545 12 18 13.3455 18 15Z" fill="#F7AB59"/>
</svg>
