<svg width="140" height="140" viewBox="0 0 140 140" fill="none" xmlns="http://www.w3.org/2000/svg">
<path fill-rule="evenodd" clip-rule="evenodd" d="M69 94.6094H51.2452H48.7548H36.7773C35.9442 94.6093 35.1326 94.8734 34.4591 95.3638C33.7856 95.8542 33.285 96.5456 33.0293 97.3386L28.2998 112H36.5776L39.6443 102.484H51.2452C51.7419 102.484 52.2289 102.391 52.6826 102.213C55.5088 102.391 58.2581 102.484 58.7548 102.484H69V94.6094ZM69 125.125H32.3477L35.6108 115H27.3321L23.1856 127.854C22.9951 128.445 22.947 129.072 23.0451 129.685C23.1433 130.298 23.3849 130.879 23.7504 131.381C24.1158 131.882 24.5946 132.291 25.1478 132.572C25.701 132.853 26.3129 133 26.9336 133H69V125.125ZM72 133V125.125H107.652L104.386 115H112.668L116.814 127.854C117.005 128.445 117.053 129.072 116.955 129.685C116.857 130.298 116.615 130.879 116.25 131.381C115.884 131.882 115.405 132.291 114.852 132.572C114.299 132.853 113.687 133 113.066 133H72ZM72 102.484V94.6094H103.223C104.056 94.6093 104.867 94.8734 105.541 95.3638C106.214 95.8542 106.715 96.5456 106.971 97.3386L111.7 112H103.418L100.348 102.484H72Z" fill="#525556"/>
<path d="M43 112H96L97 115H42L43 112Z" fill="#525556"/>
<rect x="72" y="104" width="19" height="3" transform="rotate(90 72 104)" fill="#525556"/>
<path d="M72.7882 43.3483C71.9674 43.3485 71.167 43.0923 70.499 42.6153C69.8309 42.1383 69.3287 41.4645 69.0624 40.688C68.7031 39.6367 68.1681 38.654 67.48 37.7816C67.1456 37.3772 66.8954 36.9101 66.7441 36.4076C66.5929 35.9051 66.5435 35.3775 66.5991 34.8557C66.6546 34.3338 66.8139 33.8284 67.0676 33.369C67.3213 32.9097 67.6642 32.5056 68.0763 32.1807C68.4883 31.8557 68.9611 31.6164 69.467 31.4768C69.9728 31.3372 70.5015 31.3002 71.0219 31.3678C71.5422 31.4354 72.0439 31.6064 72.4972 31.8706C72.9506 32.1349 73.3466 32.4871 73.6619 32.9065C74.9015 34.4749 75.866 36.2424 76.5141 38.1336C76.7174 38.7265 76.7763 39.3595 76.6857 39.9798C76.5951 40.6001 76.3577 41.1898 75.9933 41.6998C75.6288 42.2099 75.1479 42.6256 74.5904 42.9123C74.033 43.199 73.4151 43.3485 72.7882 43.3483Z" fill="#F7AB59"/>
<path d="M80.1711 83.2424C78.4458 83.2457 76.7697 82.6675 75.4132 81.6013C74.0568 80.5351 73.0991 79.043 72.6948 77.3657L70.5734 68.6294L68.4521 77.3657C68.0554 78.9848 67.1435 80.4312 65.8537 81.4873C64.5639 82.5434 62.966 83.1519 61.3004 83.2213C59.6349 83.2907 57.9919 82.8172 56.6187 81.8721C55.2455 80.927 54.2165 79.5614 53.6865 77.9809L52.9679 75.8227C51.932 72.7191 51.3557 69.4807 51.2575 66.2103C51.2042 64.3845 50.9567 62.5696 50.5192 60.7962C45.4497 56.9768 42.0266 50.2511 42.0266 43.8674C42.0261 40.5556 42.9539 37.31 44.7046 34.4988C46.4553 31.6875 48.9588 29.4232 51.9311 27.9627C54.9034 26.5021 58.2256 25.9038 61.5207 26.2357C64.8158 26.5675 67.952 27.8162 70.5734 29.8401C73.1949 27.8162 76.331 26.5675 79.6261 26.2357C82.9213 25.9038 86.2434 26.5021 89.2158 27.9627C92.1881 29.4232 94.6916 31.6875 96.4423 34.4988C98.1929 37.31 99.1207 40.5556 99.1203 43.8674C99.1203 50.2511 95.6971 56.9768 90.6424 60.7962C90.2049 62.5696 89.9575 64.3845 89.9041 66.2103C89.7417 71.5431 88.4694 74.9933 87.4751 77.9809C86.9658 79.5147 85.9857 80.8488 84.6744 81.7934C83.363 82.738 81.7872 83.2451 80.1711 83.2424ZM59.7453 34.0237C57.1346 34.0237 54.6308 35.0608 52.7847 36.9068C50.9387 38.7529 49.9016 41.2567 49.9016 43.8674C49.9016 48.0805 52.52 52.8744 55.9899 55.0204C56.8187 55.5327 57.4281 56.3341 57.7003 57.2697C58.5517 60.0958 59.029 63.0214 59.1202 65.9715C59.2383 69.909 60.1218 72.4118 60.9487 74.8925L63.7049 63.5401C64.0786 62.0002 64.959 60.6306 66.2046 59.6511C67.4502 58.6716 68.9888 58.1391 70.5734 58.1391C72.158 58.1391 73.6967 58.6716 74.9423 59.6511C76.1879 60.6306 77.0682 62.0002 77.4419 63.5401L80.1981 74.8925C81.0841 72.2322 81.9208 69.8328 82.0266 65.9715C82.1172 63.0213 82.5946 60.0957 83.4466 57.2697C83.7188 56.3341 84.3282 55.5327 85.1569 55.0204C88.6269 52.8744 91.2453 48.0805 91.2453 43.8674C91.2452 41.8211 90.6074 39.8256 89.4205 38.1586C88.2337 36.4916 86.5568 35.2359 84.6232 34.5662C82.6896 33.8965 80.5953 33.846 78.6316 34.4218C76.668 34.9977 74.9326 36.1711 73.6668 37.779C73.2983 38.2465 72.8286 38.6243 72.293 38.8841C71.7574 39.1439 71.1699 39.2788 70.5747 39.2788C69.9794 39.2788 69.3919 39.1439 68.8563 38.8841C68.3207 38.6243 67.851 38.2465 67.4825 37.779C66.5635 36.6057 65.3889 35.6575 64.0481 35.0067C62.7073 34.3559 61.2357 34.0197 59.7453 34.0237Z" fill="#F7AB59"/>
<g opacity="0.2">
<path opacity="0.2" d="M95.1828 43.867C95.1828 49.3967 91.927 55.4629 87.2266 58.3693C86.4668 60.8756 86.0423 63.4715 85.9642 66.0892C85.819 70.7995 84.6992 73.8436 83.7346 76.7352C83.4772 77.5088 82.9751 78.1777 82.3041 78.6408C81.633 79.1038 80.8295 79.3359 80.015 79.302C79.2004 79.2681 78.4189 78.97 77.7887 78.4528C77.1585 77.9356 76.7137 77.2273 76.5215 76.435C73.3469 63.365 73.5955 64.2804 73.4158 63.8965C77.994 59.7215 81.1557 54.2224 82.4606 48.1653C83.7654 42.1083 83.1483 35.7951 80.6953 30.1054C88.339 29.6231 95.1828 35.8345 95.1828 43.867Z" fill="#F7AB59"/>
</g>
<path d="M68.2774 115.48C67.8369 115.163 57.3533 107.593 46.7343 95.8496C35.2073 83.1019 24.8 66.808 24.8 49.7734C24.8 24.5341 45.3341 4 70.5734 4C95.8128 4 116.347 24.5341 116.347 49.7734C116.347 66.8253 105.915 83.129 94.4125 95.8496C83.7936 107.605 73.31 115.163 72.8695 115.48C72.2002 115.961 71.3972 116.219 70.5734 116.219C69.7496 116.219 68.9466 115.961 68.2774 115.48ZM70.5734 11.875C49.6751 11.875 32.675 28.8752 32.675 49.7734C32.675 75.6428 62.0364 100.619 70.5734 107.33C79.1006 100.614 108.472 75.6133 108.472 49.7734C108.472 28.8752 91.4717 11.875 70.5734 11.875Z" fill="#F7AB59"/>
<g opacity="0.2">
<path opacity="0.2" d="M112.409 49.7736C112.409 82.258 70.5734 112.281 70.5734 112.281C70.5734 112.281 67.5563 110.116 63.1414 106.319C72.3453 99.0637 102.32 73.3322 102.32 45.8361C102.323 38.3355 100.308 30.9721 96.4877 24.5175C92.6672 18.0628 87.1811 12.7544 80.6042 9.14844C89.6823 11.3931 97.7471 16.6136 103.512 23.9769C109.276 31.3402 112.409 40.4221 112.409 49.7736Z" fill="#F7AB59"/>
</g>
</svg>
